# xmcd CD database file
#
# Track frame offsets:
#	150
#	22818
#	63482
#	79820
#	100007
#	124183
#	145828
#	164674
#	184599
#	204197
#	231452
#	251663
#	264926
#	285694
#
# Disc length: 4019 seconds
#
# Revision: 0
# Processed by: cddbd v1.5.1PL0 Copyright (c) Steve Scherf et al.
# Submitted via: CDex 1.51
#
DISCID=c00fb10e
DTITLE=Humphrey Lyttelton And His Band - Sad, Sweet Songs And Crazy Rhythms
DYEAR=2005
DGENRE=Jazz
TTITLE0=Lion Rampant
TTITLE1=Happy-Go-Lucky Local
TTITLE2=(Back Home Again In) Indiana
TTITLE3=Sad, Sweet Song
TTITLE4=Ah, Mersey !
TTITLE5=Rue Paradis
TTITLE6=Ory's Story
TTITLE7=We Fell Out Of Love
TTITLE8=Lady Of The Lavender Mist
TTITLE9=Blues In Bolero
TTITLE10=Madly
TTITLE11=Jail Break
TTITLE12=Y.O.U.
TTITLE13=Yeah, Yeah, Yeah ! Ha, Ha ! Yukahtya Fren Dafu
EXTD=YEAR: 2005
EXTT0=
EXTT1=
EXTT2=
EXTT3=
EXTT4=
EXTT5=
EXTT6=
EXTT7=
EXTT8=
EXTT9=
EXTT10=
EXTT11=
EXTT12=
EXTT13=
PLAYORDER=
